# xmcd CD database file
#
# Track frame offsets:
#	182
#	5730
#	33715
#	54190
#	82615
#	108332
#	128290
#	147715
#	154315
#
# Disc length: 2304 seconds
#
# Revision: 1
# Processed by: cddbd v1.5.1PL2 Copyright (c) Steve Scherf et al.
# Submitted via: CDex 1.51
#
DISCID=6b08fe09
DTITLE=Vladislav Sendecki - Men From Wilnau
DYEAR=1988
DGENRE=Jazz
TTITLE0=Miniature IV
TTITLE1=Gulliver Preview
TTITLE2=Toy's Corner
TTITLE3=Men From Wilnau
TTITLE4=September
TTITLE5=Circle
TTITLE6=Maxiture
TTITLE7=Miniature V
TTITLE8=Persuasion
EXTD=YEAR: 1988
EXTT0=
EXTT1=
EXTT2=
EXTT3=
EXTT4=
EXTT5=
EXTT6=
EXTT7=
EXTT8=
PLAYORDER=
